# xmcd
#
# Track frame offsets: 
#        150
#        21484
#        47016
#        69033
#        88690
#        107862
#        137251
#        164871
#        184516
#
# Disc length: 2878 seconds
#
# Revision: 1
# Processed by: cddbd v1.5.2PL0 Copyright (c) Steve Scherf et al.
# Submitted via: ExactAudioCopy v1.3
#
DISCID=730b3c09
DTITLE=Chris Eckman - The Black Field
DYEAR=2004
DGENRE=Rock
TTITLE0=Nights Like These
TTITLE1=Healing Waters Of The Flood
TTITLE2=Country
TTITLE3=Crystalline
TTITLE4=Befell
TTITLE5=The Black Field
TTITLE6=Pirates and Clowns
TTITLE7=Restless
TTITLE8=Why Can't I Touch It?
EXTD=
EXTT0=
EXTT1=
EXTT2=
EXTT3=
EXTT4=
EXTT5=
EXTT6=
EXTT7=
EXTT8=
PLAYORDER=
